<svg height="448pt" viewBox="-72 0 448 448" width="448pt" xmlns="http://www.w3.org/2000/svg"><path d="m132 122.398438 20 12 48-29.597657-20-9.601562zm0 0"/><path d="m162.398438 86.398438-10.398438-5.597657-48 24 12.800781 8zm0 0"/><path d="m160 211.199219 48-24v-68.800781l-48 30.402343zm0 0"/><path d="m96 187.199219 48 24v-62.398438l-48-30.402343zm0 0"/><path d="m232 384v52.800781l60.800781-60.800781h-52.800781c-4.800781 0-8 3.199219-8 8zm0 0"/><path d="m296 0h-288c-4.800781 0-8 3.199219-8 8v432c0 4.800781 3.199219 8 8 8h208v-64c0-13.601562 10.398438-24 24-24h64v-352c0-4.800781-3.199219-8-8-8zm-192 32h96v16h-96zm-24 67.199219 72-36 72 36v97.601562l-72 36-72-36zm104 284.800781h-136v-16h136zm72-40h-208v-16h208zm0-40h-208v-16h208zm0-40h-208v-16h208zm0 0"/></svg>